<svg xmlns="http://www.w3.org/2000/svg" width="20" height="19" viewBox="0 0 20 19" fill="none">
  <g clip-path="url(#clip0_8194_113699)">
    <path d="M13.6569 0H13.792C13.9005 1.33992 13.389 2.34111 12.7675 3.06613C12.1576 3.78615 11.3224 4.48448 9.97166 4.37852C9.88156 3.05779 10.3938 2.13086 11.0146 1.4075C11.5902 0.733368 12.6457 0.133491 13.6569 0ZM17.7459 13.9465V13.9841C17.3663 15.1338 16.8248 16.1191 16.164 17.0335C15.5608 17.8637 14.8216 18.9808 13.5017 18.9808C12.3612 18.9808 11.6036 18.2474 10.4347 18.2274C9.19825 18.2074 8.51828 18.8406 7.38777 19H7.00231C6.17216 18.8799 5.5022 18.2224 5.01413 17.63C3.57492 15.8796 2.46277 13.6186 2.25586 10.7252V9.87503C2.34346 7.80424 3.34965 6.12058 4.68707 5.30462C5.39291 4.87077 6.36322 4.50116 7.44367 4.66636C7.90672 4.73811 8.37978 4.89663 8.79444 5.05348C9.1874 5.2045 9.67882 5.47231 10.1444 5.45813C10.4597 5.44895 10.7734 5.28459 11.0913 5.16862C12.0224 4.83239 12.9352 4.44693 14.1383 4.62798C15.5841 4.84657 16.6104 5.489 17.2444 6.48017C16.0213 7.2586 15.0543 8.43165 15.2195 10.4349C15.3664 12.2545 16.4243 13.3191 17.7459 13.9465Z" fill="black"/>
  </g>
  <defs>
    <clipPath id="clip0_8194_113699">
      <rect width="19" height="19" fill="white" transform="translate(0.5)"/>
    </clipPath>
  </defs>
</svg>