<svg xmlns="http://www.w3.org/2000/svg" width="22" height="20" viewBox="0 0 24 23" fill="none">
<path d="M12 0.25C5.78692 0.25 0.75 5.28692 0.75 11.5C0.75 17.7131 5.78692 22.75 12 22.75C18.2131 22.75 23.25 17.7131 23.25 11.5C23.25 5.28692 18.2131 0.25 12 0.25ZM12 20.875C6.82245 20.875 2.62501 16.6775 2.62501 11.5C2.62501 6.32245 6.82245 2.12501 12 2.12501C17.1775 2.12501 21.375 6.32245 21.375 11.5C21.375 16.6775 17.1775 20.875 12 20.875Z" fill="#212529"/>
<path d="M10.7879 6.14958C10.4218 5.78347 9.82819 5.78347 9.46208 6.14958C9.09597 6.51569 9.09597 7.1093 9.46208 7.47541L13.4867 11.5L9.46208 15.5246C9.09597 15.8907 9.09597 16.4843 9.46208 16.8504C9.82819 17.2165 10.4218 17.2165 10.7879 16.8504L15.4754 12.1629C15.8415 11.7968 15.8415 11.2032 15.4754 10.8371L10.7879 6.14958Z" fill="#212529"/>
</svg>