<svg xmlns="http://www.w3.org/2000/svg" width="18" height="19" viewBox="0 0 18 19" fill="none">
  <g clip-path="url(#clip0_8190_29878)">
    <path d="M18 9.5C18 13.9923 14.7087 17.7157 10.4062 18.3907V12.1016H12.5033L12.9023 9.5H10.4062V7.8118C10.4062 7.09988 10.755 6.40625 11.873 6.40625H13.0078V4.19141C13.0078 4.19141 11.9777 4.01562 10.993 4.01562C8.93742 4.01562 7.59375 5.26156 7.59375 7.51719V9.5H5.30859V12.1016H7.59375V18.3907C3.29133 17.7157 0 13.9923 0 9.5C0 4.52961 4.02961 0.5 9 0.5C13.9704 0.5 18 4.52961 18 9.5Z" fill="#1877F2"/>
    <path d="M12.5033 12.1016L12.9023 9.5H10.4062V7.81176C10.4062 7.10002 10.7549 6.40625 11.8729 6.40625H13.0078V4.19141C13.0078 4.19141 11.9779 4.01562 10.9932 4.01562C8.93739 4.01562 7.59375 5.26156 7.59375 7.51719V9.5H5.30859V12.1016H7.59375V18.3906C8.05198 18.4625 8.52159 18.5 9 18.5C9.47841 18.5 9.94802 18.4625 10.4062 18.3906V12.1016H12.5033Z" fill="white"/>
  </g>
  <defs>
    <clipPath id="clip0_8190_29878">
      <rect width="18" height="18" fill="white" transform="translate(0 0.5)"/>
    </clipPath>
  </defs>
</svg>