<svg xmlns="http://www.w3.org/2000/svg" width="19" height="19" viewBox="0 0 19 19" fill="none">
  <path d="M4.48916 11.376L3.86261 13.715L1.57258 13.7634C0.888193 12.4941 0.5 11.0417 0.5 9.49837C0.5 8.00596 0.862951 6.59859 1.50631 5.35938H1.5068L3.54557 5.73315L4.43868 7.75969C4.25175 8.30465 4.14987 8.88964 4.14987 9.49837C4.14994 10.159 4.26961 10.792 4.48916 11.376Z" fill="#FBBB00"/>
  <path d="M18.3421 7.82031C18.4455 8.36474 18.4994 8.92699 18.4994 9.50162C18.4994 10.146 18.4316 10.7745 18.3026 11.3807C17.8644 13.4438 16.7197 15.2453 15.1338 16.5201L15.1333 16.5196L12.5654 16.3886L12.2019 14.1198C13.2542 13.5027 14.0766 12.5369 14.5098 11.3807H9.69727V7.82031H14.58H18.3421Z" fill="#518EF8"/>
  <path d="M15.1335 16.5193L15.134 16.5197C13.5917 17.7595 11.6324 18.5012 9.49964 18.5012C6.07224 18.5012 3.09238 16.5855 1.57227 13.7664L4.48885 11.3789C5.24889 13.4073 7.20564 14.8513 9.49964 14.8513C10.4857 14.8513 11.4094 14.5848 12.2021 14.1194L15.1335 16.5193Z" fill="#28B446"/>
  <path d="M15.2441 2.57196L12.3286 4.95892C11.5082 4.44613 10.5384 4.1499 9.49951 4.1499C7.15358 4.1499 5.16023 5.6601 4.43826 7.76128L1.50635 5.36096H1.50586C3.00372 2.47306 6.02116 0.5 9.49951 0.5C11.6832 0.5 13.6855 1.27786 15.2441 2.57196Z" fill="#F14336"/>
</svg>