<svg xmlns="http://www.w3.org/2000/svg" width="74" height="74" viewBox="0 0 74 74" fill="none">
  <path fill-rule="evenodd" clip-rule="evenodd" d="M12.3333 0C5.52182 0 0 5.52182 0 12.3333V61.6667C0 68.4782 5.52182 74 12.3333 74H61.6667C68.4782 74 74 68.4782 74 61.6667V12.3333C74 5.52182 68.4782 0 61.6667 0H12.3333ZM51.3433 32.3759H57.5268C57.9332 32.3759 58.2525 32.6948 58.2525 33.072V39.5263C58.2525 39.9322 57.9332 40.2515 57.5268 40.2515H51.3433C50.8499 40.2515 50.4581 40.6428 50.4581 41.1362V47.3149C50.4581 47.7208 50.1388 48.0401 49.732 48.0401H43.5489C43.0555 48.0401 42.6638 48.4315 42.6638 48.9248L42.6346 53.6822C42.6346 54.0881 42.4023 54.4507 42.0251 54.6102C39.6011 55.6256 37.0464 56.1477 34.3902 56.1477C23.5332 56.1477 14.7083 47.3295 14.7083 36.4804C14.7083 25.6314 23.5332 16.8127 34.3902 16.8127C37.0464 16.8127 39.6153 17.3348 42.0251 18.3357C42.3877 18.4951 42.6346 18.8577 42.6346 19.2641L42.6638 23.7167C42.6638 24.21 43.0555 24.6014 43.5489 24.6014H49.732C50.1388 24.6014 50.4581 24.9207 50.4581 25.3266V31.4907C50.4581 31.9841 50.8499 32.3759 51.3433 32.3759ZM27.9893 40.1645H33.8822C34.3756 40.1645 34.7674 39.7582 34.7819 39.2798V33.3763C34.7819 32.8834 34.3902 32.4916 33.8968 32.4916H27.9893C27.4955 32.4916 27.1037 32.8834 27.1037 33.3763V39.2798C27.1037 39.7727 27.4955 40.1645 27.9893 40.1645ZM35.7691 32.3759H41.6766C42.1554 32.3759 42.5476 31.9841 42.5617 31.5053V25.6022C42.5617 25.1093 42.17 24.7175 41.6766 24.7175H35.7691C35.2757 24.7175 34.8835 25.1093 34.8835 25.6022V31.4907C34.8835 31.9841 35.2757 32.3759 35.7691 32.3759ZM41.6766 40.2802H35.7691C35.2899 40.2802 34.8835 40.672 34.8835 41.1649V47.068C34.8835 47.5614 35.2757 47.9531 35.7691 47.9531H41.6766C42.17 47.9531 42.5617 47.5614 42.5617 47.068V41.1649C42.5617 40.672 42.17 40.2802 41.6766 40.2802ZM49.471 32.5062H43.5635C43.0701 32.5062 42.6779 32.8979 42.6779 33.3909V39.2939C42.6779 39.7873 43.0701 40.1786 43.5635 40.1786H49.471C49.9643 40.1786 50.3566 39.7873 50.3566 39.2939V33.3909C50.3566 32.8979 49.9643 32.5062 49.471 32.5062Z" fill="#212529"/>
</svg>