<svg xmlns="http://www.w3.org/2000/svg" width="68" height="68" viewBox="0 0 68 68" fill="none">
  <path fill-rule="evenodd" clip-rule="evenodd" d="M19.6328 9.6333C14.11 9.6333 9.63281 14.1104 9.63281 19.6333L9.63281 48.3666C9.63281 53.8895 14.11 58.3666 19.6328 58.3666L48.3662 58.3666C53.889 58.3666 58.3662 53.8895 58.3662 48.3667L58.3662 19.6333C58.3662 14.1105 53.889 9.6333 48.3662 9.6333L19.6328 9.6333ZM43.4453 30.9548H47.5176C47.7852 30.9548 47.9955 31.1648 47.9955 31.4132L47.9955 35.6638C47.9955 35.9311 47.7852 36.1414 47.5176 36.1414H43.4453C43.1204 36.1414 42.8624 36.3991 42.8624 36.724V40.793C42.8624 41.0604 42.6521 41.2707 42.3842 41.2707H38.3123C37.9874 41.2707 37.7294 41.5284 37.7294 41.8533L37.7102 44.9863C37.7102 45.2536 37.5572 45.4924 37.3088 45.5974C35.7124 46.2661 34.03 46.6099 32.2807 46.6099C25.1307 46.6099 19.3191 40.8026 19.3191 33.6579C19.3191 26.5132 25.1307 20.7056 32.2807 20.7056C34.03 20.7056 35.7218 21.0494 37.3088 21.7085C37.5476 21.8135 37.7102 22.0523 37.7102 22.3199L37.7294 25.2522C37.7294 25.5771 37.9874 25.8348 38.3123 25.8348H42.3842C42.6521 25.8348 42.8624 26.0451 42.8624 26.3125V30.3719C42.8624 30.6968 43.1204 30.9548 43.4453 30.9548ZM28.0654 36.0841H31.9462C32.2711 36.0841 32.5291 35.8165 32.5387 35.5015V31.6136C32.5387 31.289 32.2807 31.031 31.9558 31.031H28.0654C27.7402 31.031 27.4822 31.289 27.4822 31.6136V35.5015C27.4822 35.8261 27.7402 36.0841 28.0654 36.0841ZM33.1888 30.9548H37.0793C37.3946 30.9548 37.6529 30.6968 37.6622 30.3815V26.494C37.6622 26.1693 37.4042 25.9113 37.0793 25.9113H33.1888C32.8639 25.9113 32.6056 26.1693 32.6056 26.494V30.3719C32.6056 30.6968 32.8639 30.9548 33.1888 30.9548ZM37.0793 36.1603H33.1888C32.8732 36.1603 32.6056 36.4183 32.6056 36.7429V40.6304C32.6056 40.9553 32.8639 41.2134 33.1888 41.2134H37.0793C37.4042 41.2134 37.6622 40.9553 37.6622 40.6304V36.7429C37.6622 36.4183 37.4042 36.1603 37.0793 36.1603ZM42.2123 31.0406H38.3219C37.997 31.0406 37.7387 31.2986 37.7387 31.6232V35.5108C37.7387 35.8357 37.997 36.0934 38.3219 36.0934H42.2123C42.5372 36.0934 42.7955 35.8357 42.7955 35.5108L42.7955 31.6232C42.7955 31.2986 42.5372 31.0406 42.2123 31.0406Z" fill="#22B573"/>
</svg>