<svg width="22" height="18" viewBox="0 0 22 18" fill="none" xmlns="http://www.w3.org/2000/svg">
<path d="M14.94 11.3822C14.1265 10.5245 13.1491 9.90059 12.1196 9.56082C13.1453 8.63571 13.7912 7.29713 13.7912 5.81039C13.7912 3.02547 11.5255 0.759766 8.74053 0.759766C5.95561 0.759766 3.68987 3.02547 3.68987 5.81039C3.68987 7.29713 4.3357 8.63571 5.36142 9.56082C4.33189 9.90063 3.35444 10.5246 2.54094 11.3823C1.22483 12.7698 0.5 14.5672 0.5 16.4433V17.2408H16.981V16.4433C16.981 14.5672 16.2562 12.7698 14.94 11.3822ZM5.2848 5.81039C5.2848 3.90493 6.83503 2.3547 8.74049 2.3547C10.646 2.3547 12.1962 3.90493 12.1962 5.81039C12.1962 7.71585 10.646 9.26608 8.74049 9.26608C6.83503 9.26608 5.2848 7.71585 5.2848 5.81039ZM2.15113 15.6458C2.54693 12.8592 4.96443 10.861 7.14556 10.861H10.3354C12.5166 10.861 14.9341 12.8592 15.3299 15.6458H2.15113Z" fill="#212529"/>
<path d="M19.1084 7.67072V5.27832H17.5135V7.67072H15.1211V9.26566H17.5135V11.6581H19.1084V9.26566H21.5008V7.67072H19.1084Z" fill="#212529"/>
</svg>
