<svg width="15" height="15" viewBox="0 0 15 15" fill="none" xmlns="http://www.w3.org/2000/svg">
<path d="M11.1309 10.924C11.5905 10.924 12.0456 10.8463 12.4703 10.6955C12.8949 10.5447 13.2807 10.3236 13.6057 10.0449C13.9307 9.76618 14.1885 9.4353 14.3644 9.07115C14.5403 8.70701 14.6309 8.31672 14.6309 7.92256C14.6309 7.52841 14.5403 7.13812 14.3644 6.77397C14.1885 6.40982 13.9307 6.07895 13.6057 5.80024C13.2807 5.52154 12.8949 5.30045 12.4703 5.14962C12.0456 4.99878 11.5905 4.92115 11.1309 4.92115C10.5197 4.92103 9.91931 5.05906 9.39019 5.32134H9.29219C9.77874 5.07459 10.1819 4.72339 10.462 4.30235C10.7421 3.88131 10.8895 3.40495 10.8896 2.92021C10.8896 2.5532 10.8053 2.18978 10.6415 1.85071C10.4777 1.51164 10.2377 1.20356 9.93506 0.944042C9.63244 0.684529 9.27318 0.478671 8.87778 0.338224C8.48238 0.197776 8.0586 0.125488 7.63063 0.125488C7.20265 0.125488 6.77887 0.197776 6.38347 0.338224C5.98808 0.478671 5.62881 0.684529 5.32619 0.944042C5.02357 1.20356 4.78351 1.51164 4.61973 1.85071C4.45596 2.18978 4.37166 2.5532 4.37166 2.92021C4.37175 3.40495 4.51911 3.88131 4.79921 4.30235C5.07932 4.72339 5.48251 5.07459 5.96906 5.32134H5.87199C5.35866 5.06802 4.76553 4.92115 4.13086 4.92115C3.2026 4.92115 2.31236 5.23737 1.65599 5.80024C0.999608 6.36312 0.630859 7.12654 0.630859 7.92256C0.630859 8.71859 0.999608 9.48201 1.65599 10.0449C2.31236 10.6078 3.2026 10.924 4.13086 10.924C4.6086 10.924 5.08127 10.84 5.51956 10.677C5.95786 10.5139 6.35244 10.2755 6.67886 9.97633C6.48706 11.6255 4.45986 12.9249 2.49753 12.9249H2.73086C2.54521 12.9249 2.36716 12.9882 2.23588 13.1007C2.10461 13.2133 2.03086 13.366 2.03086 13.5252C2.03086 13.6844 2.10461 13.8371 2.23588 13.9497C2.36716 14.0622 2.54521 14.1255 2.73086 14.1255H12.5309C12.7165 14.1255 12.8946 14.0622 13.0258 13.9497C13.1571 13.8371 13.2309 13.6844 13.2309 13.5252C13.2309 13.366 13.1571 13.2133 13.0258 13.1007C12.8946 12.9882 12.7165 12.9249 12.5309 12.9249H12.7642C10.8019 12.9249 8.77466 11.6251 8.58333 9.97593C8.90955 10.2752 9.30402 10.5138 9.74225 10.6769C10.1805 10.84 10.6531 10.9241 11.1309 10.924Z" fill="#ADB5BD"/>
</svg>
