<svg width="500" height="295" viewBox="0 0 500 295" fill="none" xmlns="http://www.w3.org/2000/svg">
<rect width="500" height="295" fill="white"/>
<path d="M142.182 154.804C148.812 161.553 161.212 160.13 161.212 160.13C161.212 160.13 162.853 147.765 156.215 141.02C149.585 134.272 137.192 135.691 137.192 135.691C137.192 135.691 135.551 148.056 142.182 154.804Z" fill="url(#paint0_linear_8221_126479)"/>
<path d="M309.613 13.5649C304.368 16.4364 297 13.5295 297 13.5295C297 13.5295 298.142 5.96799 303.39 3.09997C308.635 0.228438 316 3.13218 316 3.13218C316 3.13218 314.858 10.6937 309.613 13.5649Z" fill="url(#paint1_linear_8221_126479)"/>
<path d="M186.785 25.8816C179.648 33.1453 166.303 31.6136 166.303 31.6136C166.303 31.6136 164.537 18.3055 171.68 11.0463C178.817 3.78268 192.156 5.30954 192.156 5.30954C192.156 5.30954 193.922 18.618 186.785 25.8816Z" fill="url(#paint2_linear_8221_126479)"/>
<path d="M147.72 94.4873C151.103 94.4873 153.846 97.367 153.846 100.919C153.846 104.472 151.103 107.352 147.72 107.352C144.336 107.352 141.594 104.472 141.594 100.919C141.594 97.367 144.336 94.4873 147.72 94.4873Z" fill="#E1E4E5"/>
<path d="M248.85 165.147C250.746 165.147 252.283 166.683 252.283 168.579C252.283 170.475 250.746 172.012 248.85 172.012C246.955 172.012 245.418 170.475 245.418 168.579C245.418 166.683 246.955 165.147 248.85 165.147Z" fill="#22B573"/>
<path d="M335.68 125.57C339.587 125.57 342.754 128.738 342.754 132.645C342.754 136.552 339.587 139.719 335.68 139.719C331.773 139.719 328.605 136.552 328.605 132.645C328.605 128.738 331.773 125.57 335.68 125.57Z" fill="#22B573"/>
<path d="M155.608 58.8407C158.315 58.8407 160.509 56.6466 160.509 53.9399C160.509 51.2332 158.315 49.0391 155.608 49.0391C152.901 49.0391 150.707 51.2332 150.707 53.9399C150.707 56.6466 152.901 58.8407 155.608 58.8407Z" fill="#F8AE9D"/>
<path d="M183.36 171.902C184.993 171.902 186.318 170.66 186.318 169.129C186.318 167.597 184.993 166.355 183.36 166.355C181.727 166.355 180.402 167.597 180.402 169.129C180.402 170.66 181.727 171.902 183.36 171.902Z" fill="#E1E4E5"/>
<path d="M324.081 116.598C326.266 116.598 328.037 114.901 328.037 112.807C328.037 110.713 326.266 109.016 324.081 109.016C321.896 109.016 320.125 110.713 320.125 112.807C320.125 114.901 321.896 116.598 324.081 116.598Z" fill="#E1E4E5"/>
<path d="M308.161 161.009C310.698 161.009 312.755 158.952 312.755 156.415C312.755 153.877 310.698 151.82 308.161 151.82C305.623 151.82 303.566 153.877 303.566 156.415C303.566 158.952 305.623 161.009 308.161 161.009Z" fill="#E1E4E5"/>
<path d="M217.562 11.4751C218.746 11.4751 219.706 10.378 219.706 9.02464C219.706 7.67131 218.746 6.57422 217.562 6.57422C216.378 6.57422 215.418 7.67131 215.418 9.02464C215.418 10.378 216.378 11.4751 217.562 11.4751Z" fill="#E1E4E5"/>
<path d="M320.708 83.7289C320.386 84.931 321.099 86.1666 322.302 86.4887C323.504 86.8108 324.739 86.0974 325.061 84.8953C325.383 83.6932 324.67 82.4576 323.468 82.1355C322.266 81.8134 321.03 82.5268 320.708 83.7289Z" fill="#E1E4E5"/>
<path d="M320.032 57.1885C321.723 57.1885 323.095 55.8172 323.095 54.1255C323.095 52.4339 321.723 51.0625 320.032 51.0625C318.34 51.0625 316.969 52.4339 316.969 54.1255C316.969 55.8172 318.34 57.1885 320.032 57.1885Z" fill="#E1E4E5"/>
<path d="M158.253 79.7342C159.437 79.7342 160.397 78.9114 160.397 77.8964C160.397 76.8814 159.437 76.0586 158.253 76.0586C157.069 76.0586 156.109 76.8814 156.109 77.8964C156.109 78.9114 157.069 79.7342 158.253 79.7342Z" fill="#E1E4E5"/>
<path d="M261.629 4.52808C260.959 7.02984 262.443 9.60135 264.945 10.2717C267.447 10.942 270.018 9.45737 270.689 6.95561C271.359 4.45385 269.874 1.88236 267.373 1.21202C264.871 0.541671 262.299 2.02632 261.629 4.52808Z" fill="#E1E4E5"/>
<path d="M121.165 87.2496H121.105C120.749 92.2917 117 92.3693 117 92.3693C117 92.3693 121.134 92.45 121.134 98.2764C121.134 92.45 125.269 92.3693 125.269 92.3693C125.269 92.3693 121.521 92.2917 121.165 87.2496ZM335.932 23.2383H335.829C335.216 31.9222 328.759 32.0558 328.759 32.0558C328.759 32.0558 335.879 32.1951 335.879 42.229C335.879 32.1951 342.999 32.0558 342.999 32.0558C342.999 32.0558 336.545 31.9222 335.932 23.2383Z" fill="#E1E4E5"/>
<path fill-rule="evenodd" clip-rule="evenodd" d="M279.223 123.352V146.016C279.223 154.364 272.461 161.125 264.114 161.125H188.566C180.218 161.125 173.457 154.364 173.457 146.016V70.4689C173.457 62.121 180.218 55.3594 188.566 55.3594H211.231" fill="url(#paint3_linear_8221_126479)"/>
<path fill-rule="evenodd" clip-rule="evenodd" d="M202.236 25.5977H288.674C299.287 25.5977 307.883 34.1935 307.883 44.806V131.245C307.883 141.857 299.287 150.453 288.674 150.453H202.236C191.623 150.453 183.027 141.857 183.027 131.245V44.806C183.027 34.1935 191.623 25.5977 202.236 25.5977Z" fill="#22B573"/>
<path d="M227.289 87.1138L240.989 100.813L270.887 70.9062" stroke="white" stroke-width="11.5" stroke-linecap="round" stroke-linejoin="round"/>
<defs>
<linearGradient id="paint0_linear_8221_126479" x1="168.637" y1="177.857" x2="120.701" y2="102.711" gradientUnits="userSpaceOnUse">
<stop stop-color="white"/>
<stop offset="1" stop-color="#EEEEEE"/>
</linearGradient>
<linearGradient id="paint1_linear_8221_126479" x1="289.359" y1="22.7384" x2="330.309" y2="-15.2277" gradientUnits="userSpaceOnUse">
<stop stop-color="white"/>
<stop offset="1" stop-color="#EEEEEE"/>
</linearGradient>
<linearGradient id="paint2_linear_8221_126479" x1="158.311" y1="50.6927" x2="209.905" y2="-30.1856" gradientUnits="userSpaceOnUse">
<stop stop-color="white"/>
<stop offset="1" stop-color="#EEEEEE"/>
</linearGradient>
<linearGradient id="paint3_linear_8221_126479" x1="224.085" y1="-3.93885" x2="227.346" y2="276.181" gradientUnits="userSpaceOnUse">
<stop stop-color="white"/>
<stop offset="1" stop-color="#EEEEEE"/>
</linearGradient>
</defs>
</svg>
