<svg width="18" height="21" viewBox="0 0 18 21" fill="none" xmlns="http://www.w3.org/2000/svg">
<path d="M8.95638 10.8855C11.8135 10.8855 14.1491 8.54991 14.1491 5.69275C14.1491 2.83559 11.8135 0.5 8.95638 0.5C6.09922 0.5 3.76367 2.83559 3.76367 5.69275C3.76367 8.54991 6.09926 10.8855 8.95638 10.8855Z" fill="#22B573"/>
<path d="M17.8681 15.035C17.732 14.6949 17.5506 14.3774 17.3465 14.0826C16.3034 12.5407 14.6935 11.5203 12.8794 11.2708C12.6527 11.2482 12.4033 11.2935 12.2218 11.4296C11.2695 12.1325 10.1357 12.4953 8.95652 12.4953C7.77736 12.4953 6.64359 12.1325 5.6912 11.4296C5.50978 11.2935 5.26034 11.2255 5.03361 11.2708C3.21954 11.5203 1.5869 12.5407 0.566505 14.0826C0.362425 14.3774 0.181002 14.7176 0.0449772 15.035C-0.0230349 15.1711 -0.000378708 15.3298 0.0676335 15.4659C0.249057 15.7833 0.475793 16.1008 0.679873 16.3729C0.997321 16.8038 1.33747 17.1892 1.72297 17.552C2.04042 17.8695 2.40322 18.1643 2.76607 18.4591C4.55743 19.797 6.71164 20.4999 8.93387 20.4999C11.1561 20.4999 13.3103 19.7969 15.1017 18.4591C15.4645 18.187 15.8273 17.8695 16.1448 17.552C16.5076 17.1892 16.8704 16.8037 17.1879 16.3729C17.4146 16.0781 17.6187 15.7833 17.8001 15.4659C17.9134 15.3298 17.9361 15.171 17.8681 15.035Z" fill="#22B573"/>
</svg>
