<svg width="20" height="21" viewBox="0 0 20 21" fill="none" xmlns="http://www.w3.org/2000/svg">
<g clip-path="url(#clip0_167_10129)">
<path d="M19.4926 15.1027C20.0648 13.8951 20.1573 12.5153 19.7512 11.2421C19.3451 9.96894 18.4709 8.89742 17.3051 8.24414C17.4875 8.98219 17.5794 9.73973 17.5785 10.5C17.5785 13.5824 16.0828 16.3203 13.7793 18.0316C14.6879 18.197 15.624 18.1217 16.4945 17.8133L19.3531 18.1141C19.4452 18.1238 19.5383 18.1115 19.6248 18.0783C19.7112 18.0451 19.7886 17.9919 19.8505 17.923C19.9124 17.8542 19.957 17.7716 19.9809 17.6821C20.0047 17.5926 20.007 17.4987 19.9875 17.4082L19.4926 15.1027Z" fill="#22B573"/>
<path d="M16.4063 10.5C16.4063 5.97695 12.7262 2.29688 8.2032 2.29688C3.68015 2.29688 7.32094e-05 5.97695 7.32094e-05 10.5C-0.000987291 11.9271 0.37108 13.3298 1.07937 14.5688L0.0266357 17.9426C-0.00502805 18.044 -0.0085311 18.1521 0.0165013 18.2553C0.0415337 18.3585 0.0941598 18.453 0.16875 18.5287C0.24334 18.6043 0.337088 18.6582 0.439966 18.6847C0.542843 18.7112 0.65098 18.7092 0.752808 18.6789C0.769214 18.6738 2.34421 18.2062 4.18484 17.6527C5.41184 18.3422 6.79576 18.7039 8.2032 18.7031C12.7262 18.7031 16.4063 15.023 16.4063 10.5ZM5.0782 7.17969H8.2032C8.3586 7.17969 8.50764 7.24142 8.61752 7.35131C8.7274 7.46119 8.78914 7.61022 8.78914 7.76562C8.78914 7.92103 8.7274 8.07006 8.61752 8.17994C8.50764 8.28983 8.3586 8.35156 8.2032 8.35156H5.0782C4.9228 8.35156 4.77376 8.28983 4.66388 8.17994C4.55399 8.07006 4.49226 7.92103 4.49226 7.76562C4.49226 7.61022 4.55399 7.46119 4.66388 7.35131C4.77376 7.24142 4.9228 7.17969 5.0782 7.17969ZM11.3282 13.8203H5.0782C4.9228 13.8203 4.77376 13.7586 4.66388 13.6487C4.55399 13.5388 4.49226 13.3898 4.49226 13.2344C4.49226 13.079 4.55399 12.9299 4.66388 12.8201C4.77376 12.7102 4.9228 12.6484 5.0782 12.6484H11.3282C11.4836 12.6484 11.6326 12.7102 11.7425 12.8201C11.8524 12.9299 11.9141 13.079 11.9141 13.2344C11.9141 13.3898 11.8524 13.5388 11.7425 13.6487C11.6326 13.7586 11.4836 13.8203 11.3282 13.8203ZM11.3282 11.0859H5.0782C4.9228 11.0859 4.77376 11.0242 4.66388 10.9143C4.55399 10.8044 4.49226 10.6554 4.49226 10.5C4.49226 10.3446 4.55399 10.1956 4.66388 10.0857C4.77376 9.9758 4.9228 9.91406 5.0782 9.91406H11.3282C11.4836 9.91406 11.6326 9.9758 11.7425 10.0857C11.8524 10.1956 11.9141 10.3446 11.9141 10.5C11.9141 10.6554 11.8524 10.8044 11.7425 10.9143C11.6326 11.0242 11.4836 11.0859 11.3282 11.0859Z" fill="#22B573"/>
</g>
<defs>
<clipPath id="clip0_167_10129">
<rect width="20" height="20" fill="white" transform="translate(0 0.5)"/>
</clipPath>
</defs>
</svg>
