<svg width="18" height="19" viewBox="0 0 18 19" fill="none" xmlns="http://www.w3.org/2000/svg">
<path d="M8.99934 19C10.1383 19 11.1191 18.312 11.5495 17.3301H6.44922C6.87958 18.312 7.86041 19 8.99934 19Z" fill="#22B573"/>
<path d="M14.752 9.198V7.97852C14.752 5.38747 13.0297 3.19137 10.67 2.47408V1.66992C10.67 0.749127 9.92084 0 9.00004 0C8.07925 0 7.33012 0.749127 7.33012 1.66992V2.47408C4.97034 3.19137 3.24809 5.38743 3.24809 7.97852V9.198C3.24809 11.474 2.38055 13.6321 0.805291 15.2749C0.650916 15.4359 0.607536 15.6734 0.695039 15.8785C0.782543 16.0837 0.984047 16.2168 1.20707 16.2168H16.793C17.016 16.2168 17.2175 16.0837 17.305 15.8785C17.3925 15.6734 17.3491 15.4359 17.1948 15.2749C15.6195 13.6321 14.752 11.474 14.752 9.198ZM9.55668 2.25358C9.37348 2.23591 9.18782 2.22656 9.00004 2.22656C8.81227 2.22656 8.62661 2.23591 8.4434 2.25358V1.66992C8.4434 1.36299 8.69311 1.11328 9.00004 1.11328C9.30698 1.11328 9.55668 1.36299 9.55668 1.66992V2.25358Z" fill="#22B573"/>
<path d="M16.2356 7.97924C16.2356 8.28665 16.4849 8.53588 16.7923 8.53588C17.0997 8.53588 17.3489 8.28665 17.3489 7.97924C17.3489 5.74896 16.4804 3.65217 14.9034 2.07514C14.686 1.85779 14.3336 1.85775 14.1162 2.07514C13.8988 2.29252 13.8988 2.64495 14.1162 2.86234C15.4829 4.22911 16.2356 6.04632 16.2356 7.97924Z" fill="#22B573"/>
<path d="M1.20703 8.53585C1.51445 8.53585 1.76367 8.28663 1.76367 7.97921C1.76367 6.04633 2.5164 4.22913 3.88314 2.86235C4.10052 2.64496 4.10052 2.29254 3.88314 2.07515C3.66579 1.85776 3.31332 1.85776 3.09594 2.07515C1.5189 3.65219 0.650391 5.74894 0.650391 7.97921C0.650391 8.28663 0.899617 8.53585 1.20703 8.53585Z" fill="#22B573"/>
</svg>
