<svg width="16" height="15" viewBox="0 0 16 15" fill="none" xmlns="http://www.w3.org/2000/svg">
<path d="M4.31576 14.1254C3.80396 14.1254 3.36894 13.9463 3.01069 13.5881C2.65243 13.2298 2.47331 12.7948 2.47331 12.283C2.47331 11.7712 2.65243 11.3362 3.01069 10.9779C3.36894 10.6197 3.80396 10.4406 4.31576 10.4406C4.45906 10.4406 4.59212 10.4559 4.71495 10.4866C4.83778 10.5173 4.95549 10.5583 5.06809 10.6094L5.94325 9.51933C5.65665 9.20199 5.45705 8.84375 5.34446 8.44454C5.23186 8.04533 5.20627 7.64616 5.26769 7.24695L4.02403 6.8324C3.85003 7.0883 3.62996 7.29301 3.36382 7.44657C3.09769 7.6001 2.80085 7.67688 2.47331 7.67688C1.96152 7.67688 1.52649 7.49772 1.16824 7.13949C0.809986 6.78121 0.630859 6.34619 0.630859 5.83443C0.630859 5.32263 0.809986 4.88761 1.16824 4.52934C1.52649 4.1711 1.96152 3.99198 2.47331 3.99198C2.9851 3.99198 3.42012 4.1711 3.77838 4.52934C4.13663 4.88761 4.31576 5.32263 4.31576 5.83443V5.95727L5.55941 6.38713C5.76412 6.01864 6.03793 5.70646 6.38083 5.45056C6.72373 5.19466 7.11014 5.03092 7.54004 4.95927V3.62345C7.14084 3.51086 6.81074 3.29338 6.54972 2.97091C6.28871 2.64852 6.1582 2.27238 6.1582 1.84245C6.1582 1.33065 6.33733 0.89563 6.69558 0.537394C7.05384 0.179118 7.48886 0 8.00065 0C8.51244 0 8.94747 0.179118 9.30572 0.537394C9.66397 0.89563 9.8431 1.33065 9.8431 1.84245C9.8431 2.27238 9.71004 2.64852 9.4439 2.97091C9.17777 3.29338 8.85023 3.51086 8.46126 3.62345V4.95927C8.89117 5.03092 9.27757 5.19466 9.62047 5.45056C9.96337 5.70646 10.2372 6.01864 10.4419 6.38713L11.6855 5.95727V5.83443C11.6855 5.32263 11.8647 4.88761 12.2229 4.52934C12.5812 4.1711 13.0162 3.99198 13.528 3.99198C14.0398 3.99198 14.4748 4.1711 14.8331 4.52934C15.1913 4.88761 15.3704 5.32263 15.3704 5.83443C15.3704 6.34619 15.1913 6.78121 14.8331 7.13949C14.4748 7.49772 14.0398 7.67688 13.528 7.67688C13.2004 7.67688 12.9011 7.6001 12.6298 7.44657C12.3586 7.29301 12.141 7.0883 11.9773 6.8324L10.7336 7.24695C10.795 7.64616 10.7694 8.04276 10.6568 8.43685C10.5443 8.83097 10.3447 9.19173 10.0581 9.51933L10.9332 10.5941C11.0458 10.5429 11.1635 10.5045 11.2864 10.4789C11.4092 10.4533 11.5422 10.4406 11.6855 10.4406C12.1973 10.4406 12.6324 10.6197 12.9906 10.9779C13.3489 11.3362 13.528 11.7712 13.528 12.283C13.528 12.7948 13.3489 13.2298 12.9906 13.5881C12.6324 13.9463 12.1973 14.1254 11.6855 14.1254C11.1738 14.1254 10.7387 13.9463 10.3805 13.5881C10.0222 13.2298 9.8431 12.7948 9.8431 12.283C9.8431 12.0782 9.87637 11.8812 9.9429 11.6919C10.0094 11.5025 10.099 11.3311 10.2116 11.1775L9.33643 10.0874C8.91676 10.3228 8.46894 10.4406 7.99298 10.4406C7.51701 10.4406 7.06919 10.3228 6.64952 10.0874L5.78971 11.1775C5.90231 11.3311 5.99187 11.5025 6.0584 11.6919C6.12494 11.8812 6.1582 12.0782 6.1582 12.283C6.1582 12.7948 5.97908 13.2298 5.62082 13.5881C5.26257 13.9463 4.82755 14.1254 4.31576 14.1254Z" fill="#ADB5BD"/>
</svg>
