<svg width="20" height="17" viewBox="0 0 20 17" fill="none" xmlns="http://www.w3.org/2000/svg">
<path d="M19.4906 12.8039C20.0629 11.5963 20.1553 10.2164 19.7493 8.94327C19.3432 7.67011 18.4689 6.5986 17.3031 5.94531C17.4856 6.68336 17.5774 7.4409 17.5766 8.20117C17.5766 11.2836 16.0809 14.0215 13.7773 15.7328C14.686 15.8982 15.6221 15.8229 16.4926 15.5145L19.3512 15.8152C19.4433 15.825 19.5364 15.8127 19.6228 15.7795C19.7093 15.7463 19.7866 15.6931 19.8485 15.6242C19.9104 15.5553 19.9551 15.4728 19.9789 15.3833C20.0027 15.2938 20.005 15.1999 19.9855 15.1094L19.4906 12.8039Z" fill="#22B573"/>
<path d="M16.4063 8.20312C16.4063 3.68008 12.7262 0 8.2032 0C3.68015 0 7.32094e-05 3.68008 7.32094e-05 8.20312C-0.000987291 9.63027 0.37108 11.0329 1.07937 12.2719L0.0266357 15.6457C-0.00502805 15.7471 -0.0085311 15.8552 0.0165013 15.9584C0.0415337 16.0617 0.0941598 16.1562 0.16875 16.2318C0.24334 16.3074 0.337088 16.3614 0.439966 16.3878C0.542843 16.4143 0.65098 16.4123 0.752808 16.382C0.769214 16.377 2.34421 15.9094 4.18484 15.3559C5.41184 16.0453 6.79576 16.4071 8.2032 16.4062C12.7262 16.4062 16.4063 12.7262 16.4063 8.20312ZM5.0782 4.88281H8.2032C8.3586 4.88281 8.50764 4.94455 8.61752 5.05443C8.7274 5.16431 8.78914 5.31335 8.78914 5.46875C8.78914 5.62415 8.7274 5.77319 8.61752 5.88307C8.50764 5.99295 8.3586 6.05469 8.2032 6.05469H5.0782C4.9228 6.05469 4.77376 5.99295 4.66388 5.88307C4.55399 5.77319 4.49226 5.62415 4.49226 5.46875C4.49226 5.31335 4.55399 5.16431 4.66388 5.05443C4.77376 4.94455 4.9228 4.88281 5.0782 4.88281ZM11.3282 11.5234H5.0782C4.9228 11.5234 4.77376 11.4617 4.66388 11.3518C4.55399 11.2419 4.49226 11.0929 4.49226 10.9375C4.49226 10.7821 4.55399 10.6331 4.66388 10.5232C4.77376 10.4133 4.9228 10.3516 5.0782 10.3516H11.3282C11.4836 10.3516 11.6326 10.4133 11.7425 10.5232C11.8524 10.6331 11.9141 10.7821 11.9141 10.9375C11.9141 11.0929 11.8524 11.2419 11.7425 11.3518C11.6326 11.4617 11.4836 11.5234 11.3282 11.5234ZM11.3282 8.78906H5.0782C4.9228 8.78906 4.77376 8.72733 4.66388 8.61744C4.55399 8.50756 4.49226 8.35853 4.49226 8.20312C4.49226 8.04772 4.55399 7.89869 4.66388 7.78881C4.77376 7.67892 4.9228 7.61719 5.0782 7.61719H11.3282C11.4836 7.61719 11.6326 7.67892 11.7425 7.78881C11.8524 7.89869 11.9141 8.04772 11.9141 8.20312C11.9141 8.35853 11.8524 8.50756 11.7425 8.61744C11.6326 8.72733 11.4836 8.78906 11.3282 8.78906Z" fill="#22B573"/>
</svg>
