<svg width="17" height="17" viewBox="0 0 17 17" fill="none" xmlns="http://www.w3.org/2000/svg">
<path d="M7.49585 1.95703V10.5773H3.56053C2.61622 10.5773 1.71058 10.2021 1.04285 9.5344C0.375126 8.86667 0 7.96104 0 7.01673V5.51756C0 4.57325 0.375126 3.66761 1.04285 2.99989C1.71058 2.33216 2.61622 1.95703 3.56053 1.95703H7.49585Z" fill="#22B573"/>
<path d="M15.5701 0.246801C15.4015 0.125479 15.2064 0.045968 15.001 0.0148203C14.7957 -0.0163275 14.5858 0.00178007 14.3888 0.0676506L8.24219 2.11477V10.4217L14.3888 12.4688C14.5223 12.5137 14.6624 12.5365 14.8033 12.5362C14.9756 12.5364 15.1462 12.5027 15.3055 12.4369C15.4647 12.3711 15.6094 12.2745 15.7313 12.1528C15.8532 12.031 15.9499 11.8864 16.0159 11.7273C16.0819 11.5681 16.1158 11.3975 16.1158 11.2252V1.31121C16.1157 1.10325 16.0661 0.898291 15.9713 0.71323C15.8764 0.528169 15.7389 0.368302 15.5701 0.246801Z" fill="#22B573"/>
<path d="M8.35689 15.6601C8.08174 16.0118 7.71335 16.2791 7.29368 16.4316C6.87402 16.5841 6.41995 16.6157 5.98322 16.5227C5.54649 16.4297 5.14466 16.2159 4.8235 15.9057C4.50234 15.5955 4.27476 15.2013 4.16671 14.7681L3.30469 11.3125C3.38904 11.325 3.47432 11.33 3.55955 11.3275H8.21447L8.78415 13.6137C8.87316 13.9649 8.88094 14.3317 8.8069 14.6863C8.73286 15.0409 8.57896 15.3739 8.35689 15.6601Z" fill="#22B573"/>
</svg>
