<svg width="17" height="17" viewBox="0 0 17 17" fill="none" xmlns="http://www.w3.org/2000/svg">
<path d="M14.6408 10.7969H7.90234L12.6662 15.5607C12.8768 15.7713 13.2256 15.7524 13.4089 15.5177C14.3549 14.3068 14.948 12.8759 15.1356 11.3526C15.172 11.0569 14.9387 10.7969 14.6408 10.7969Z" fill="#22B573"/>
<path d="M6.3482 10.653C6.2548 10.5596 6.20231 10.4329 6.20231 10.3009V4.17839C6.20231 3.87329 5.93008 3.63745 5.62886 3.68606C2.43531 4.20157 -0.00999662 6.98227 3.07275e-05 10.3213C0.0110542 13.9939 3.01036 16.9919 6.68292 17.0012C8.1157 17.0048 9.48088 16.5612 10.6195 15.736C10.8667 15.5568 10.893 15.1978 10.6772 14.982L6.3482 10.653Z" fill="#22B573"/>
<path d="M16.9982 9.25318C16.5055 4.38089 12.6199 0.495295 7.7476 0.00256056C7.45375 -0.0271562 7.19922 0.205631 7.19922 0.500973V9.80157H16.4998C16.7952 9.80157 17.0279 9.54703 16.9982 9.25318Z" fill="#22B573"/>
</svg>
