<svg width="18" height="18" viewBox="0 0 18 18" fill="none" xmlns="http://www.w3.org/2000/svg">
<path d="M12.6 0H1.80001C1.3228 0.000619155 0.865326 0.190461 0.527893 0.527893C0.190461 0.865326 0.000619155 1.3228 0 1.80001V15.3001C0.000781379 16.0159 0.285497 16.7022 0.791677 17.2084C1.29786 17.7146 1.98416 17.9993 2.70001 18.0001H13.5C13.6183 18.0001 13.7353 17.9769 13.8445 17.9317C13.9538 17.8865 14.053 17.8202 14.1366 17.7366C14.2202 17.653 14.2865 17.5538 14.3317 17.4446C14.3769 17.3353 14.4001 17.2183 14.4 17.1001V1.80001C14.3994 1.3228 14.2096 0.865326 13.8722 0.527893C13.5347 0.190461 13.0772 0.000619155 12.6 0ZM4.05001 3.60001H6.75002C6.98872 3.60001 7.21764 3.69483 7.38642 3.86362C7.5552 4.0324 7.65003 4.26132 7.65003 4.50002C7.65003 4.73871 7.5552 4.96763 7.38642 5.13641C7.21764 5.3052 6.98872 5.40002 6.75002 5.40002H4.05001C3.81132 5.40002 3.5824 5.3052 3.41362 5.13641C3.24483 4.96763 3.15001 4.73871 3.15001 4.50002C3.15001 4.26132 3.24483 4.0324 3.41362 3.86362C3.5824 3.69483 3.81132 3.60001 4.05001 3.60001ZM10.35 14.8501H4.05001C3.81132 14.8501 3.5824 14.7552 3.41362 14.5864C3.24483 14.4177 3.15001 14.1887 3.15001 13.95C3.15001 13.7114 3.24483 13.4824 3.41362 13.3136C3.5824 13.1449 3.81132 13.05 4.05001 13.05H10.35C10.5887 13.05 10.8176 13.1449 10.9864 13.3136C11.1552 13.4824 11.25 13.7114 11.25 13.95C11.25 14.1887 11.1552 14.4177 10.9864 14.5864C10.8176 14.7552 10.5887 14.8501 10.35 14.8501ZM10.35 11.7H4.05001C3.81132 11.7 3.5824 11.6052 3.41362 11.4364C3.24483 11.2677 3.15001 11.0387 3.15001 10.8C3.15001 10.5613 3.24483 10.3324 3.41362 10.1636C3.5824 9.99486 3.81132 9.90003 4.05001 9.90003H10.35C10.5887 9.90003 10.8176 9.99486 10.9864 10.1636C11.1552 10.3324 11.25 10.5613 11.25 10.8C11.25 11.0387 11.1552 11.2677 10.9864 11.4364C10.8176 11.6052 10.5887 11.7 10.35 11.7ZM10.35 8.55003H4.05001C3.81132 8.55003 3.5824 8.45521 3.41362 8.28642C3.24483 8.11764 3.15001 7.88872 3.15001 7.65003C3.15001 7.41133 3.24483 7.18241 3.41362 7.01363C3.5824 6.84484 3.81132 6.75002 4.05001 6.75002H10.35C10.5887 6.75002 10.8176 6.84484 10.9864 7.01363C11.1552 7.18241 11.25 7.41133 11.25 7.65003C11.25 7.88872 11.1552 8.11764 10.9864 8.28642C10.8176 8.45521 10.5887 8.55003 10.35 8.55003Z" fill="#22B573"/>
<path d="M15.3016 17.9985H13.5016C13.3834 17.9985 13.2663 17.9753 13.1571 17.9301C13.0478 17.8849 12.9486 17.8186 12.865 17.735C12.7814 17.6514 12.7151 17.5522 12.6699 17.443C12.6247 17.3337 12.6015 17.2167 12.6016 17.0985V6.29844C12.6015 6.18023 12.6247 6.06317 12.6699 5.95394C12.7151 5.84472 12.7814 5.74548 12.865 5.66189C12.9486 5.57831 13.0478 5.51201 13.1571 5.46681C13.2663 5.4216 13.3834 5.39837 13.5016 5.39844H17.1016C17.2198 5.39837 17.3369 5.4216 17.4461 5.46681C17.5553 5.51201 17.6545 5.57831 17.7381 5.66189C17.8217 5.74548 17.888 5.84472 17.9332 5.95394C17.9784 6.06317 18.0016 6.18023 18.0016 6.29844V15.2985C18.0008 16.0143 17.7161 16.7006 17.2099 17.2068C16.7037 17.713 16.0174 17.9977 15.3016 17.9985ZM14.4016 16.1985H15.3016C15.5402 16.1983 15.769 16.1034 15.9378 15.9347C16.1065 15.7659 16.2014 15.5371 16.2016 15.2985V7.19844H14.4016V16.1985Z" fill="#22B573"/>
</svg>
