<svg width="20" height="18" viewBox="0 0 20 18" fill="none" xmlns="http://www.w3.org/2000/svg">
<path d="M19.4926 13.6027C20.0648 12.3951 20.1573 11.0153 19.7512 9.7421C19.3451 8.46894 18.4709 7.39742 17.3051 6.74414C17.4875 7.48219 17.5794 8.23973 17.5785 9C17.5785 12.0824 16.0828 14.8203 13.7793 16.5316C14.6879 16.697 15.624 16.6217 16.4945 16.3133L19.3531 16.6141C19.4452 16.6238 19.5383 16.6115 19.6248 16.5783C19.7112 16.5451 19.7886 16.4919 19.8505 16.423C19.9124 16.3542 19.957 16.2716 19.9809 16.1821C20.0047 16.0926 20.007 15.9987 19.9875 15.9082L19.4926 13.6027Z" fill="#6C757D"/>
<path d="M16.4063 9C16.4063 4.47695 12.7262 0.796875 8.2032 0.796875C3.68015 0.796875 7.32094e-05 4.47695 7.32094e-05 9C-0.000987291 10.4271 0.37108 11.8298 1.07937 13.0688L0.0266357 16.4426C-0.00502805 16.544 -0.0085311 16.6521 0.0165013 16.7553C0.0415337 16.8585 0.0941598 16.953 0.16875 17.0287C0.24334 17.1043 0.337088 17.1582 0.439966 17.1847C0.542843 17.2112 0.65098 17.2092 0.752808 17.1789C0.769214 17.1738 2.34421 16.7062 4.18484 16.1527C5.41184 16.8422 6.79576 17.2039 8.2032 17.2031C12.7262 17.2031 16.4063 13.523 16.4063 9ZM5.0782 5.67969H8.2032C8.3586 5.67969 8.50764 5.74142 8.61752 5.85131C8.7274 5.96119 8.78914 6.11022 8.78914 6.26562C8.78914 6.42103 8.7274 6.57006 8.61752 6.67994C8.50764 6.78983 8.3586 6.85156 8.2032 6.85156H5.0782C4.9228 6.85156 4.77376 6.78983 4.66388 6.67994C4.55399 6.57006 4.49226 6.42103 4.49226 6.26562C4.49226 6.11022 4.55399 5.96119 4.66388 5.85131C4.77376 5.74142 4.9228 5.67969 5.0782 5.67969ZM11.3282 12.3203H5.0782C4.9228 12.3203 4.77376 12.2586 4.66388 12.1487C4.55399 12.0388 4.49226 11.8898 4.49226 11.7344C4.49226 11.579 4.55399 11.4299 4.66388 11.3201C4.77376 11.2102 4.9228 11.1484 5.0782 11.1484H11.3282C11.4836 11.1484 11.6326 11.2102 11.7425 11.3201C11.8524 11.4299 11.9141 11.579 11.9141 11.7344C11.9141 11.8898 11.8524 12.0388 11.7425 12.1487C11.6326 12.2586 11.4836 12.3203 11.3282 12.3203ZM11.3282 9.58594H5.0782C4.9228 9.58594 4.77376 9.52421 4.66388 9.41432C4.55399 9.30444 4.49226 9.1554 4.49226 9C4.49226 8.8446 4.55399 8.69556 4.66388 8.58568C4.77376 8.4758 4.9228 8.41406 5.0782 8.41406H11.3282C11.4836 8.41406 11.6326 8.4758 11.7425 8.58568C11.8524 8.69556 11.9141 8.8446 11.9141 9C11.9141 9.1554 11.8524 9.30444 11.7425 9.41432C11.6326 9.52421 11.4836 9.58594 11.3282 9.58594Z" fill="#6C757D"/>
</svg>
