<svg width="36" height="29" viewBox="0 0 36 29" fill="none" xmlns="http://www.w3.org/2000/svg">
<path d="M35.0856 22.6351C36.1157 20.5005 36.2821 18.0614 35.5512 15.811C34.8202 13.5605 33.2465 11.6665 31.1481 10.5117C31.4765 11.8163 31.6418 13.1553 31.6403 14.4992C31.6403 19.9477 28.9481 24.7873 24.8018 27.8122C26.4373 28.1046 28.1222 27.9715 29.6892 27.4263L34.8346 27.9579C35.0004 27.9751 35.1679 27.9535 35.3235 27.8948C35.4791 27.8361 35.6184 27.742 35.7298 27.6203C35.8412 27.4985 35.9217 27.3526 35.9645 27.1944C36.0074 27.0362 36.0115 26.8703 35.9765 26.7102L35.0856 22.6351Z" fill="#22B573"/>
<path d="M29.5312 14.5C29.5312 6.50496 22.9071 0 14.7657 0C6.62424 0 0.000131776 6.50496 0.000131776 14.5C-0.00177712 17.0226 0.667941 19.5019 1.94286 21.6919L0.047944 27.6556C-0.00905045 27.8348 -0.0153559 28.0259 0.0297022 28.2084C0.0747603 28.3908 0.169487 28.5579 0.303748 28.6915C0.43801 28.8252 0.606756 28.9206 0.791934 28.9673C0.977113 29.0141 1.17176 29.0106 1.35505 28.9571C1.38458 28.9481 4.21956 28.1216 7.53267 27.1432C9.74127 28.3619 12.2323 29.0014 14.7657 28.9999C22.9071 28.9999 29.5312 22.495 29.5312 14.5ZM9.14071 8.63093H14.7657C15.0454 8.63093 15.3137 8.74005 15.5115 8.93428C15.7092 9.12852 15.8204 9.39195 15.8204 9.66664C15.8204 9.94133 15.7092 10.2048 15.5115 10.399C15.3137 10.5932 15.0454 10.7024 14.7657 10.7024H9.14071C8.86099 10.7024 8.59273 10.5932 8.39494 10.399C8.19715 10.2048 8.08603 9.94133 8.08603 9.66664C8.08603 9.39195 8.19715 9.12852 8.39494 8.93428C8.59273 8.74005 8.86099 8.63093 9.14071 8.63093ZM20.3907 20.369H9.14071C8.86099 20.369 8.59273 20.2599 8.39494 20.0656C8.19715 19.8714 8.08603 19.608 8.08603 19.3333C8.08603 19.0586 8.19715 18.7952 8.39494 18.6009C8.59273 18.4067 8.86099 18.2976 9.14071 18.2976H20.3907C20.6704 18.2976 20.9386 18.4067 21.1364 18.6009C21.3342 18.7952 21.4453 19.0586 21.4453 19.3333C21.4453 19.608 21.3342 19.8714 21.1364 20.0656C20.9386 20.2599 20.6704 20.369 20.3907 20.369ZM20.3907 15.5357H9.14071C8.86099 15.5357 8.59273 15.4266 8.39494 15.2323C8.19715 15.0381 8.08603 14.7746 8.08603 14.5C8.08603 14.2253 8.19715 13.9618 8.39494 13.7676C8.59273 13.5734 8.86099 13.4642 9.14071 13.4642H20.3907C20.6704 13.4642 20.9386 13.5734 21.1364 13.7676C21.3342 13.9618 21.4453 14.2253 21.4453 14.5C21.4453 14.7746 21.3342 15.0381 21.1364 15.2323C20.9386 15.4266 20.6704 15.5357 20.3907 15.5357Z" fill="#22B573"/>
</svg>
