<svg width="18" height="18" viewBox="0 0 18 18" fill="none" xmlns="http://www.w3.org/2000/svg">
<path d="M8.43725 2.67041V11.2906H4.50193C3.55762 11.2906 2.65199 10.9155 1.98426 10.2478C1.31653 9.58005 0.941406 8.67442 0.941406 7.7301V6.23094C0.941406 5.28663 1.31653 4.38099 1.98426 3.71326C2.65199 3.04554 3.55762 2.67041 4.50193 2.67041H8.43725Z" fill="#6C757D"/>
<path d="M16.5115 0.959204C16.3429 0.837882 16.1478 0.75837 15.9425 0.727223C15.7371 0.696075 15.5272 0.714182 15.3302 0.780053L9.18359 2.82717V11.1341L15.3302 13.1812C15.4637 13.2261 15.6038 13.2489 15.7447 13.2486C15.917 13.2488 16.0876 13.2151 16.2469 13.1493C16.4061 13.0835 16.5508 12.9869 16.6727 12.8652C16.7946 12.7434 16.8913 12.5988 16.9573 12.4397C17.0233 12.2805 17.0572 12.1099 17.0572 11.9376V2.02361C17.0571 1.81565 17.0076 1.61069 16.9127 1.42563C16.8178 1.24057 16.6803 1.0807 16.5115 0.959204Z" fill="#6C757D"/>
<path d="M9.30025 16.373C9.0251 16.7247 8.65671 16.992 8.23704 17.1445C7.81738 17.297 7.36331 17.3285 6.92658 17.2356C6.48985 17.1426 6.08802 16.9288 5.76686 16.6186C5.44569 16.3084 5.21812 15.9142 5.11007 15.481L4.24805 12.0254C4.3324 12.0378 4.41768 12.0429 4.50291 12.0404H9.15782L9.72751 14.3266C9.81651 14.6778 9.8243 15.0446 9.75026 15.3992C9.67622 15.7537 9.52232 16.0868 9.30025 16.373Z" fill="#6C757D"/>
</svg>
