<svg width="18" height="18" viewBox="0 0 18 18" fill="none" xmlns="http://www.w3.org/2000/svg">
<path d="M9 0C7.21997 0 5.47991 0.527841 3.99987 1.51677C2.51983 2.50571 1.36628 3.91131 0.685088 5.55585C0.00389954 7.20038 -0.17433 9.00998 0.172936 10.7558C0.520203 12.5016 1.37737 14.1053 2.63604 15.364C3.89471 16.6226 5.49836 17.4798 7.24419 17.8271C8.99002 18.1743 10.7996 17.9961 12.4442 17.3149C14.0887 16.6337 15.4943 15.4802 16.4832 14.0001C17.4722 12.5201 18 10.78 18 9C18 6.61305 17.0518 4.32387 15.364 2.63604C13.6761 0.948211 11.3869 0 9 0ZM3.69 5.61671H4.72263C4.77534 5.61671 4.82668 5.59996 4.86925 5.56888C4.91182 5.53781 4.94341 5.49401 4.95948 5.44382L5.27921 4.4621C5.29589 4.4125 5.32772 4.36938 5.37022 4.33884C5.41271 4.30829 5.46372 4.29186 5.51606 4.29186C5.56839 4.29186 5.6194 4.30829 5.6619 4.33884C5.70439 4.36938 5.73622 4.4125 5.7529 4.4621L6.07382 5.44737C6.08988 5.49757 6.12148 5.54136 6.16405 5.57244C6.20661 5.60351 6.25796 5.62026 6.31066 5.62026H7.34211C7.39465 5.62051 7.44579 5.63731 7.48824 5.66829C7.53068 5.69926 7.56228 5.74283 7.57855 5.7928C7.59481 5.84277 7.59491 5.89659 7.57882 5.94661C7.56273 5.99664 7.53129 6.04032 7.48895 6.07145L6.66 6.67895C6.61722 6.70991 6.58534 6.75364 6.56896 6.80385C6.55258 6.85407 6.55253 6.90818 6.56882 6.95842L6.88382 7.93421C6.90026 7.98445 6.90034 8.03862 6.88405 8.08891C6.86776 8.13921 6.83593 8.18304 6.79316 8.2141C6.75038 8.24516 6.69885 8.26186 6.64599 8.26178C6.59312 8.26171 6.54164 8.24487 6.49895 8.21368L5.66408 7.60618C5.62101 7.57559 5.56948 7.55915 5.51665 7.55915C5.46381 7.55915 5.41229 7.57559 5.36921 7.60618L4.53435 8.21368C4.49179 8.2469 4.43963 8.26544 4.38566 8.26654C4.33169 8.26763 4.27881 8.25122 4.23495 8.21975C4.19109 8.18829 4.15859 8.14347 4.14233 8.09199C4.12607 8.04052 4.12691 7.98516 4.14474 7.93421L4.46448 6.9525C4.4811 6.90342 4.48205 6.85038 4.4672 6.80073C4.45235 6.75109 4.42243 6.70728 4.38158 6.67539L3.55263 6.06789C3.51016 6.03766 3.47826 5.99484 3.46145 5.94548C3.44464 5.89613 3.44377 5.84274 3.45895 5.79287C3.47414 5.74299 3.50462 5.69915 3.54608 5.66754C3.58754 5.63593 3.63789 5.61815 3.69 5.61671ZM14.0672 11.295C13.6895 13.4514 11.5638 14.9471 9 14.9471C6.43619 14.9471 4.30935 13.4514 3.93158 11.295C3.9279 11.2731 3.92592 11.2509 3.92566 11.2287C3.92566 10.9172 4.30342 10.7159 4.63619 10.8296C5.91513 11.2713 7.40842 11.4963 9.00237 11.4963C10.5963 11.4963 12.0872 11.2713 13.3674 10.8296C13.6978 10.7112 14.0779 10.9161 14.0779 11.2287C14.0761 11.251 14.0725 11.2732 14.0672 11.295ZM14.4557 6.06789L13.6267 6.67539C13.5839 6.70636 13.5521 6.75009 13.5357 6.8003C13.5193 6.85051 13.5192 6.90462 13.5355 6.95487L13.8553 7.93421C13.8717 7.98445 13.8718 8.03862 13.8555 8.08891C13.8392 8.13921 13.8074 8.18304 13.7646 8.2141C13.7218 8.24516 13.6703 8.26186 13.6174 8.26178C13.5646 8.26171 13.5131 8.24487 13.4704 8.21368L12.6414 7.60618C12.5986 7.57552 12.5473 7.55903 12.4946 7.55903C12.4419 7.55903 12.3906 7.57552 12.3478 7.60618L11.5117 8.21368C11.4695 8.24974 11.4164 8.27069 11.3609 8.27322C11.3054 8.27576 11.2507 8.25974 11.2053 8.22768C11.16 8.19563 11.1266 8.14938 11.1104 8.09623C11.0943 8.04309 11.0963 7.98608 11.1162 7.93421L11.4347 6.9525C11.451 6.90226 11.451 6.84815 11.4346 6.79793C11.4182 6.74772 11.3863 6.70399 11.3436 6.67303L10.5087 6.06553C10.4672 6.03398 10.4366 5.99024 10.4211 5.94042C10.4057 5.89061 10.4063 5.83722 10.4227 5.78774C10.4392 5.73826 10.4707 5.69517 10.5129 5.6645C10.555 5.63383 10.6058 5.61712 10.6579 5.61671H11.6882C11.7407 5.61617 11.7918 5.59921 11.8343 5.56821C11.8767 5.53722 11.9085 5.49372 11.925 5.44382L12.2436 4.4621C12.2602 4.4125 12.2921 4.36938 12.3346 4.33884C12.377 4.30829 12.4281 4.29186 12.4804 4.29186C12.5327 4.29186 12.5837 4.30829 12.6262 4.33884C12.6687 4.36938 12.7006 4.4125 12.7172 4.4621L13.037 5.44382C13.053 5.49401 13.0846 5.53781 13.1272 5.56888C13.1698 5.59996 13.2211 5.61671 13.2738 5.61671H14.3064C14.3596 5.61566 14.4116 5.63165 14.455 5.66234C14.4984 5.69303 14.5308 5.73681 14.5475 5.78726C14.5642 5.83771 14.5643 5.89218 14.5477 5.94268C14.5312 5.99318 14.4989 6.03706 14.4557 6.06789Z" fill="#6C757D"/>
</svg>
