<svg width="20" height="18" viewBox="0 0 20 18" fill="none" xmlns="http://www.w3.org/2000/svg">
<path d="M19.4586 13.3599L12.489 1.68627C11.9621 0.799273 11.0316 0.269531 9.99983 0.269531C8.9681 0.269531 8.03754 0.799273 7.51065 1.68627L0.541662 13.3599C0.0034778 14.2656 -0.0066999 15.3533 0.513943 16.2691C1.03578 17.1855 1.97591 17.7322 3.03022 17.7322H16.9694C18.0237 17.7322 18.964 17.1855 19.4857 16.2691C20.0064 15.3533 19.9963 14.2656 19.4586 13.3599ZM9.99987 3.83855C10.6393 3.83855 11.1577 4.35688 11.1577 4.99634V9.62758C11.1577 10.267 10.6393 10.7854 9.99987 10.7854C9.36041 10.7854 8.84208 10.2669 8.84208 9.62758V4.99634C8.84204 4.35688 9.36041 3.83855 9.99987 3.83855ZM9.99987 15.4166C9.0422 15.4166 8.26314 14.6375 8.26314 13.6798C8.26314 12.7222 9.0422 11.9431 9.99987 11.9431C10.9575 11.9431 11.7366 12.7222 11.7366 13.6798C11.7366 14.6375 10.9575 15.4166 9.99987 15.4166Z" fill="#6C757D"/>
</svg>
