<svg width="32" height="29" viewBox="0 0 32 29" fill="none" xmlns="http://www.w3.org/2000/svg">
<path d="M31.3343 21.739L20.0353 2.35277C19.1811 0.879735 17.6725 0 15.9999 0C14.3273 0 12.8187 0.879735 11.9645 2.35277L0.666518 21.739C-0.205975 23.243 -0.222475 25.0494 0.621581 26.5703C1.46757 28.0922 2.99169 29 4.70092 29H27.2989C29.0081 29 30.5323 28.0922 31.3782 26.5703C32.2224 25.0494 32.2059 23.243 31.3343 21.739ZM16 5.92702C17.0366 5.92702 17.8769 6.78781 17.8769 7.84975V15.5408C17.8769 16.6026 17.0366 17.4635 16 17.4635C14.9633 17.4635 14.123 16.6025 14.123 15.5408V7.84975C14.1229 6.78781 14.9633 5.92702 16 5.92702ZM16 25.1545C14.4474 25.1545 13.1844 23.8607 13.1844 22.2703C13.1844 20.6799 14.4474 19.3862 16 19.3862C17.5525 19.3862 18.8155 20.6799 18.8155 22.2703C18.8154 23.8608 17.5525 25.1545 16 25.1545Z" fill="#22B573"/>
</svg>
