<svg width="18" height="18" viewBox="0 0 18 18" fill="none" xmlns="http://www.w3.org/2000/svg">
<path d="M15.1412 11.2971H8.40283L13.1667 16.0609C13.3773 16.2715 13.7261 16.2527 13.9094 16.018C14.8554 14.8071 15.4485 13.3762 15.6361 11.8528C15.6725 11.5572 15.4391 11.2971 15.1412 11.2971Z" fill="#6C757D"/>
<path d="M6.8482 11.1513C6.7548 11.0579 6.70231 10.9312 6.70231 10.7991V4.67669C6.70231 4.37158 6.43008 4.13574 6.12886 4.18435C2.93531 4.69986 0.490003 7.48056 0.500031 10.8196C0.511054 14.4922 3.51036 17.4902 7.18292 17.4995C8.6157 17.5031 9.98088 17.0595 11.1195 16.2343C11.3667 16.0551 11.393 15.6961 11.1772 15.4803L6.8482 11.1513Z" fill="#6C757D"/>
<path d="M17.4974 9.75343C17.0047 4.88113 13.1191 0.995539 8.24681 0.502805C7.95296 0.473088 7.69843 0.705875 7.69843 1.00122V10.3018H16.999C17.2944 10.3018 17.5271 10.0473 17.4974 9.75343Z" fill="#6C757D"/>
</svg>
