<svg width="28" height="29" viewBox="0 0 28 29" fill="none" xmlns="http://www.w3.org/2000/svg">
<path d="M19.6 0.5H2.8C2.05769 0.500963 1.34606 0.796271 0.821165 1.32116C0.296271 1.84606 0.000963127 2.55769 0 3.3V24.3C0.00121547 25.4135 0.444105 26.4811 1.23149 27.2685C2.01888 28.0559 3.08646 28.4988 4.2 28.5H21C21.1839 28.5001 21.366 28.464 21.5359 28.3936C21.7058 28.3233 21.8602 28.2202 21.9902 28.0902C22.1202 27.9602 22.2233 27.8058 22.2936 27.6359C22.364 27.466 22.4001 27.2839 22.4 27.1V3.3C22.399 2.55769 22.1037 1.84606 21.5788 1.32116C21.0539 0.796271 20.3423 0.500963 19.6 0.5ZM6.3 6.1H10.5C10.8713 6.1 11.2274 6.2475 11.4899 6.51005C11.7525 6.7726 11.9 7.1287 11.9 7.5C11.9 7.8713 11.7525 8.2274 11.4899 8.48995C11.2274 8.7525 10.8713 8.9 10.5 8.9H6.3C5.9287 8.9 5.5726 8.7525 5.31005 8.48995C5.0475 8.2274 4.9 7.8713 4.9 7.5C4.9 7.1287 5.0475 6.7726 5.31005 6.51005C5.5726 6.2475 5.9287 6.1 6.3 6.1ZM16.1 23.6H6.3C5.9287 23.6 5.5726 23.4525 5.31005 23.19C5.0475 22.9274 4.9 22.5713 4.9 22.2C4.9 21.8287 5.0475 21.4726 5.31005 21.21C5.5726 20.9475 5.9287 20.8 6.3 20.8H16.1C16.4713 20.8 16.8274 20.9475 17.0899 21.21C17.3525 21.4726 17.5 21.8287 17.5 22.2C17.5 22.5713 17.3525 22.9274 17.0899 23.19C16.8274 23.4525 16.4713 23.6 16.1 23.6ZM16.1 18.7H6.3C5.9287 18.7 5.5726 18.5525 5.31005 18.2899C5.0475 18.0274 4.9 17.6713 4.9 17.3C4.9 16.9287 5.0475 16.5726 5.31005 16.3101C5.5726 16.0475 5.9287 15.9 6.3 15.9H16.1C16.4713 15.9 16.8274 16.0475 17.0899 16.3101C17.3525 16.5726 17.5 16.9287 17.5 17.3C17.5 17.6713 17.3525 18.0274 17.0899 18.2899C16.8274 18.5525 16.4713 18.7 16.1 18.7ZM16.1 13.8H6.3C5.9287 13.8 5.5726 13.6525 5.31005 13.3899C5.0475 13.1274 4.9 12.7713 4.9 12.4C4.9 12.0287 5.0475 11.6726 5.31005 11.4101C5.5726 11.1475 5.9287 11 6.3 11H16.1C16.4713 11 16.8274 11.1475 17.0899 11.4101C17.3525 11.6726 17.5 12.0287 17.5 12.4C17.5 12.7713 17.3525 13.1274 17.0899 13.3899C16.8274 13.6525 16.4713 13.8 16.1 13.8Z" fill="#22B573"/>
<path d="M23.8001 28.4984H21.0001C20.8162 28.4985 20.6341 28.4624 20.4642 28.3921C20.2943 28.3218 20.1399 28.2186 20.0099 28.0886C19.8799 27.9586 19.7768 27.8042 19.7065 27.6343C19.6361 27.4644 19.6 27.2823 19.6001 27.0984V10.2984C19.6 10.1146 19.6361 9.93246 19.7065 9.76256C19.7768 9.59265 19.8799 9.43828 20.0099 9.30825C20.1399 9.17823 20.2943 9.07511 20.4642 9.00479C20.6341 8.93447 20.8162 8.89833 21.0001 8.89844H26.6001C26.784 8.89833 26.9661 8.93447 27.136 9.00479C27.3059 9.07511 27.4603 9.17823 27.5903 9.30825C27.7203 9.43828 27.8234 9.59265 27.8937 9.76256C27.9641 9.93246 28.0002 10.1146 28.0001 10.2984V24.2984C27.9989 25.412 27.556 26.4796 26.7686 27.2669C25.9812 28.0543 24.9136 28.4972 23.8001 28.4984ZM22.4001 25.6984H23.8001C24.1713 25.6982 24.5273 25.5506 24.7898 25.2881C25.0523 25.0256 25.1998 24.6697 25.2001 24.2984V11.6984H22.4001V25.6984Z" fill="#22B573"/>
</svg>
