<svg width="21" height="18" viewBox="0 0 21 18" fill="none" xmlns="http://www.w3.org/2000/svg">
<path fill-rule="evenodd" clip-rule="evenodd" d="M7.99488 1.55452C6.32285 1.55452 4.9674 2.75936 4.9674 4.24561C4.9674 5.73185 6.32285 6.93669 7.99488 6.93669C9.66693 6.93669 11.0223 5.73185 11.0223 4.24561C11.0223 2.75936 9.66693 1.55452 7.99488 1.55452ZM3.50586 4.24561C3.50586 2.04186 5.51566 0.255371 7.99488 0.255371C10.4741 0.255371 12.4839 2.04186 12.4839 4.24561C12.4839 6.44935 10.4741 8.23588 7.99488 8.23588C5.51566 8.23588 3.50586 6.44935 3.50586 4.24561Z" fill="#343A40" stroke="#343A40" stroke-width="0.4"/>
<path fill-rule="evenodd" clip-rule="evenodd" d="M6.14095 11.577C4.10887 11.577 2.46154 13.0413 2.46154 14.8476C2.46154 14.9375 2.47898 14.9995 2.4965 15.0348C2.5106 15.063 2.52101 15.0685 2.52561 15.0708C3.02685 15.3327 4.46876 15.8456 7.99451 15.8456C11.5202 15.8456 12.9617 15.3328 13.463 15.0711C13.4676 15.0686 13.4784 15.063 13.4925 15.0348C13.5101 14.9995 13.5275 14.9375 13.5275 14.8476C13.5275 13.0413 11.8802 11.577 9.84801 11.577H6.14095ZM1 14.8476C1 12.3238 3.30168 10.2778 6.14095 10.2778H9.84801C12.6873 10.2778 14.989 12.3238 14.989 14.8476C14.989 15.2823 14.8237 15.867 14.2035 16.1911C13.3862 16.6181 11.6485 17.1448 7.99451 17.1448C4.34057 17.1448 2.60286 16.6181 1.78549 16.1911C1.16528 15.867 1 15.2823 1 14.8476Z" fill="#343A40" stroke="#343A40" stroke-width="0.4"/>
<path fill-rule="evenodd" clip-rule="evenodd" d="M13.8659 1.84842C13.9713 1.5021 14.3724 1.29723 14.762 1.39082C16.374 1.77809 17.4944 3.19301 17.4944 4.80178C17.4944 6.50166 16.1837 8.03431 14.3454 8.23064C13.9447 8.27337 13.5808 8.01936 13.5326 7.66317C13.4845 7.30698 13.7703 6.98351 14.171 6.94073C15.1513 6.83605 16.0329 5.96103 16.0329 4.80178C16.0329 3.70191 15.2743 2.85963 14.3807 2.64498C13.9911 2.55138 13.7606 2.19474 13.8659 1.84842Z" fill="#22B573" stroke="#22B573" stroke-width="0.4"/>
<path fill-rule="evenodd" clip-rule="evenodd" d="M16.0468 10.8032C16.1241 10.451 16.5079 10.2212 16.904 10.29C18.7024 10.6018 20.0004 12.0022 20.0004 13.6309V14.0825C20.0004 14.4822 19.8655 15.0516 19.2787 15.3849C18.8837 15.6094 18.2712 15.8485 17.3266 16.0184C16.931 16.0895 16.5455 15.8621 16.4654 15.5105C16.3854 15.1589 16.6412 14.8162 17.0367 14.745C17.8426 14.6001 18.2781 14.4116 18.4916 14.2904L18.4933 14.2889C18.4949 14.2871 18.5006 14.2802 18.5076 14.265C18.5232 14.2313 18.5388 14.1711 18.5388 14.0825V13.6309C18.5388 12.6239 17.7362 11.7579 16.6243 11.5651C16.2281 11.4964 15.9696 11.1553 16.0468 10.8032Z" fill="#22B573" stroke="#22B573" stroke-width="0.4"/>
</svg>
