<svg width="19" height="18" viewBox="0 0 19 18" fill="none" xmlns="http://www.w3.org/2000/svg">
<path fill-rule="evenodd" clip-rule="evenodd" d="M5.36306 11.6857C5.22973 11.6857 5.09556 11.6432 4.98223 11.5565C4.70889 11.3457 4.65723 10.9532 4.86806 10.6799L7.36223 7.4382C7.46389 7.3057 7.61473 7.21987 7.77973 7.19903C7.94807 7.17737 8.11307 7.22403 8.2439 7.3282L10.5939 9.17403L12.6497 6.52153C12.8614 6.24737 13.2531 6.19653 13.5264 6.40987C13.7997 6.62153 13.8497 7.01403 13.6381 7.28653L11.1964 10.4365C11.0947 10.5682 10.9447 10.654 10.7797 10.674C10.6131 10.6965 10.4481 10.6482 10.3164 10.5457L7.96807 8.7007L5.85889 11.4415C5.73556 11.6015 5.55056 11.6857 5.36306 11.6857Z" fill="#22B573" stroke="#22B573" stroke-width="0.8"/>
<path fill-rule="evenodd" clip-rule="evenodd" d="M15.9884 1.26611C15.4501 1.26611 15.0117 1.70361 15.0117 2.24278C15.0117 2.78111 15.4501 3.22028 15.9884 3.22028C16.5267 3.22028 16.9651 2.78111 16.9651 2.24278C16.9651 1.70361 16.5267 1.26611 15.9884 1.26611ZM15.9884 4.47028C14.7609 4.47028 13.7617 3.47111 13.7617 2.24278C13.7617 1.01445 14.7609 0.0161133 15.9884 0.0161133C17.2167 0.0161133 18.2151 1.01445 18.2151 2.24278C18.2151 3.47111 17.2167 4.47028 15.9884 4.47028Z" fill="#22B573"/>
<path fill-rule="evenodd" clip-rule="evenodd" d="M12.8765 17.2686H5.70646C2.90062 17.2686 1.01562 15.2978 1.01562 12.3644V5.62944C1.01562 2.69194 2.90062 0.717773 5.70646 0.717773H11.7631C12.1081 0.717773 12.3881 0.997773 12.3881 1.34277C12.3881 1.68777 12.1081 1.96777 11.7631 1.96777H5.70646C3.61646 1.96777 2.26562 3.40444 2.26562 5.62944V12.3644C2.26562 14.6186 3.58396 16.0186 5.70646 16.0186H12.8765C14.9665 16.0186 16.3173 14.5844 16.3173 12.3644V6.49861C16.3173 6.15361 16.5973 5.87361 16.9423 5.87361C17.2873 5.87361 17.5673 6.15361 17.5673 6.49861V12.3644C17.5673 15.2978 15.6823 17.2686 12.8765 17.2686Z" fill="#212529" stroke="#212529" stroke-width="0.5"/>
</svg>
