<svg width="18" height="20" viewBox="0 0 18 20" fill="none" xmlns="http://www.w3.org/2000/svg">
<path d="M8.97996 19.0544C5.64108 19.0544 2.88561 18.119 1.60212 16.5943C-0.534041 14.0126 -0.534041 5.36936 1.60212 2.80633C2.88561 1.2816 5.64108 0.346191 8.97996 0.346191C12.3188 0.346191 15.0743 1.2816 16.3578 2.80633C18.494 5.38807 18.494 14.0313 16.3578 16.5943C15.0743 18.119 12.3188 19.0544 8.97996 19.0544ZM8.97996 2.21702C6.28732 2.21702 3.86394 2.94664 2.95742 4.03172C1.42261 5.90254 1.42261 13.5168 2.95742 15.3689C3.86394 16.454 6.28732 17.1836 8.97996 17.1836C11.6726 17.1836 14.096 16.454 15.0025 15.3689C16.5373 13.4981 16.5373 5.88383 15.0025 4.03172C14.096 2.94664 11.6726 2.21702 8.97996 2.21702Z" fill="#343A40"/>
<path d="M8.98382 6.85681C9.60376 6.85681 10.1063 6.35425 10.1063 5.73431C10.1063 5.11437 9.60376 4.61182 8.98382 4.61182C8.36389 4.61182 7.86133 5.11437 7.86133 5.73431C7.86133 6.35425 8.36389 6.85681 8.98382 6.85681Z" fill="#22B573"/>
<path d="M8.98349 14.265C8.74533 14.265 8.51692 14.1704 8.34851 14.002C8.18011 13.8336 8.0855 13.6051 8.0855 13.367V9.775C7.84733 9.775 7.61892 9.68039 7.45052 9.51198C7.28211 9.34357 7.1875 9.11516 7.1875 8.877C7.1875 8.63884 7.28211 8.41043 7.45052 8.24202C7.61892 8.07361 7.84733 7.979 8.0855 7.979H8.98349C9.22166 7.979 9.45006 8.07361 9.61847 8.24202C9.78688 8.41043 9.88149 8.63884 9.88149 8.877V13.367C9.88149 13.6051 9.78688 13.8336 9.61847 14.002C9.45006 14.1704 9.22166 14.265 8.98349 14.265Z" fill="#22B573"/>
<path d="M9.88149 14.2652H8.0855C7.84733 14.2652 7.61892 14.1706 7.45052 14.0022C7.28211 13.8338 7.1875 13.6054 7.1875 13.3672C7.1875 13.1291 7.28211 12.9007 7.45052 12.7323C7.61892 12.5638 7.84733 12.4692 8.0855 12.4692H9.88149C10.1197 12.4692 10.3481 12.5638 10.5165 12.7323C10.6849 12.9007 10.7795 13.1291 10.7795 13.3672C10.7795 13.6054 10.6849 13.8338 10.5165 14.0022C10.3481 14.1706 10.1197 14.2652 9.88149 14.2652Z" fill="#22B573"/>
</svg>
