<svg width="16" height="18" viewBox="0 0 16 18" fill="none" xmlns="http://www.w3.org/2000/svg">
<path fill-rule="evenodd" clip-rule="evenodd" d="M6.5901 2.36975C6.86534 1.89685 7.37572 1.58183 7.95878 1.58183C8.54208 1.58183 9.05262 1.89713 9.32778 2.37038C9.62397 2.87994 10.0557 3.51566 10.7277 3.9046C11.4029 4.29547 12.1677 4.34641 12.7538 4.34814C13.3019 4.34975 13.8313 4.63497 14.123 5.14074C14.4145 5.64595 14.3968 6.24616 14.1247 6.72123C13.833 7.23055 13.4951 7.92086 13.4951 8.70007C13.4951 9.4796 13.8331 10.1701 14.1252 10.6797C14.3972 11.1545 14.4149 11.7541 14.1233 12.2591C13.8318 12.764 13.3038 13.0485 12.7567 13.0504C12.17 13.0525 11.4044 13.1037 10.7285 13.4951C10.0561 13.8844 9.62397 14.5207 9.32738 15.0304C9.05214 15.5033 8.54176 15.8182 7.95878 15.8182C7.37548 15.8182 6.86494 15.503 6.58979 15.0298C6.29356 14.5203 5.86179 13.8845 5.18982 13.4956C4.51455 13.1047 3.74973 13.0537 3.16366 13.052C2.61558 13.0503 2.0863 12.7651 1.79453 12.2594C1.50307 11.7542 1.52073 11.154 1.79279 10.6789C2.08448 10.1697 2.42233 9.47928 2.42233 8.70007C2.42233 7.92055 2.08427 7.22992 1.79232 6.72033C1.52027 6.24551 1.5026 5.6459 1.79415 5.14091C2.08569 4.63597 2.6137 4.35148 3.16086 4.34961C3.74752 4.34759 4.51316 4.29642 5.18902 3.90506C5.86138 3.51573 6.29349 2.87947 6.5901 2.36975ZM7.95878 0C6.78973 0 5.76979 0.634496 5.22296 1.5741C4.95531 2.03402 4.69485 2.36332 4.39635 2.53617C4.09985 2.70786 3.69241 2.76594 3.15545 2.76779C2.06828 2.77151 1.00878 3.33755 0.424249 4.35C-0.160348 5.36256 -0.120731 6.56329 0.419812 7.50674C0.68605 7.9714 0.8405 8.35682 0.8405 8.70007C0.8405 9.04309 0.686177 9.42827 0.420137 9.89285C-0.120241 10.8364 -0.159779 12.0373 0.424368 13.0499C1.00916 14.0635 2.07035 14.6306 3.15897 14.6338C3.69495 14.6354 4.10156 14.6933 4.39739 14.8645C4.69526 15.037 4.95533 15.3657 5.22231 15.8249C5.76897 16.7651 6.78925 17.4001 7.95878 17.4001C9.12775 17.4001 10.1476 16.7657 10.6945 15.8261C10.9622 15.3661 11.2227 15.0368 11.5211 14.8639C11.8177 14.6922 12.2252 14.6342 12.7622 14.6323C13.8493 14.6285 14.9087 14.0625 15.4932 13.05C16.0778 12.0375 16.0382 10.8367 15.4976 9.89325C15.2314 9.42866 15.0769 9.04325 15.0769 8.70007C15.0769 8.35705 15.2312 7.97188 15.4973 7.50745C16.0377 6.56385 16.0773 5.36282 15.4931 4.35027C14.9083 3.33657 13.8471 2.76951 12.7585 2.76631C12.2224 2.76474 11.8159 2.70679 11.5201 2.53557C11.2223 2.36318 10.9622 2.03455 10.6953 1.57537C10.1487 0.635058 9.12831 0 7.95878 0Z" fill="#343A40"/>
<path d="M5.82734 9.02792C5.82734 7.72251 6.88559 6.66426 8.19103 6.66426C9.49642 6.66426 10.5547 7.72251 10.5547 9.02792C10.5547 10.3333 9.49641 11.3916 8.19103 11.3916C6.88559 11.3916 5.82734 10.3333 5.82734 9.02792Z" stroke="#22B573" stroke-width="1.6"/>
</svg>
