<svg width="17" height="18" viewBox="0 0 17 18" fill="none" xmlns="http://www.w3.org/2000/svg">
<path d="M5.95 8.70059C5.95 8.23113 5.56944 7.85059 5.1 7.85059C4.63056 7.85059 4.25 8.23113 4.25 8.70059V9.55059C4.25 10.02 4.63055 10.4006 5.1 10.4006C5.56944 10.4006 5.95 10.02 5.95 9.55059V8.70059Z" fill="#22B573"/>
<path d="M6.80078 9.55059V4.45059C6.80078 3.98115 7.18133 3.60059 7.65078 3.60059C8.12024 3.60059 8.50078 3.98115 8.50078 4.45059V9.55059C8.50078 10.02 8.12024 10.4006 7.65078 10.4006C7.18133 10.4006 6.80078 10.02 6.80078 9.55059Z" fill="#22B573"/>
<path d="M11.0496 6.99942C11.0496 6.52998 10.6691 6.14941 10.1996 6.14941C9.73015 6.14941 9.34961 6.52998 9.34961 6.99942V9.54942C9.34961 10.0189 9.73015 10.3994 10.1996 10.3994C10.6691 10.3994 11.0496 10.0189 11.0496 9.54942V6.99942Z" fill="#22B573"/>
<path fill-rule="evenodd" clip-rule="evenodd" d="M12.7422 2.38642C9.82729 -0.528544 5.10119 -0.528544 2.18622 2.38642C-0.72874 5.30138 -0.72874 10.0275 2.18622 12.9424C4.89795 15.6542 9.17704 15.8432 12.1073 13.5096L15.549 16.9513C15.8809 17.2832 16.4191 17.2832 16.7511 16.9513C17.083 16.6193 17.083 16.0811 16.7511 15.7492L13.3094 12.3075C15.643 9.37723 15.454 5.09815 12.7422 2.38642ZM3.38831 3.5885C5.63937 1.33743 9.28907 1.33743 11.5401 3.5885C13.7912 5.83957 13.7912 9.48926 11.5401 11.7403C9.28907 13.9914 5.63937 13.9914 3.38831 11.7403C1.13723 9.48926 1.13723 5.83957 3.38831 3.5885Z" fill="#343A40"/>
</svg>
