<svg width="19" height="19" viewBox="0 0 19 19" fill="none" xmlns="http://www.w3.org/2000/svg">
<path d="M1.92467 6.48306C1.71544 6.48348 1.51392 6.40585 1.36117 6.26599C1.20841 6.12613 1.11592 5.93456 1.10253 5.73031L0.890413 2.51341C0.883385 2.40795 0.897679 2.30216 0.932476 2.2021C0.967273 2.10204 1.02189 2.00967 1.09321 1.93028C1.16452 1.85088 1.25114 1.78601 1.3481 1.73938C1.44506 1.69275 1.55047 1.66528 1.6583 1.65853C1.87452 1.6491 2.08604 1.72214 2.2483 1.86226C2.41055 2.00237 2.51087 2.19863 2.52813 2.40967L2.69585 4.87461H4.93291C5.15095 4.87461 5.36007 4.95934 5.51425 5.11017C5.66844 5.26099 5.75505 5.46554 5.75505 5.67884C5.75505 5.89213 5.66844 6.09669 5.51425 6.24751C5.36007 6.39833 5.15095 6.48306 4.93291 6.48306H1.92467Z" fill="#343A40"/>
<path d="M1.92415 6.28272C1.76778 6.28265 1.61727 6.22447 1.5031 6.11995C1.38893 6.01543 1.31961 5.87239 1.30919 5.71976L1.09707 2.50287C1.09167 2.42366 1.10228 2.34419 1.12828 2.26899C1.15428 2.19379 1.19517 2.12433 1.24861 2.06459C1.30205 2.00485 1.36699 1.95599 1.43974 1.92079C1.51248 1.8856 1.5916 1.86477 1.67257 1.85949C1.75355 1.85421 1.83479 1.86459 1.91167 1.89002C1.98855 1.91545 2.05955 1.95545 2.12062 2.00772C2.1817 2.06 2.23165 2.12353 2.26762 2.19469C2.3036 2.26585 2.32489 2.34324 2.33029 2.42245L2.50459 5.07639H4.93239C5.09592 5.07639 5.25276 5.13993 5.36839 5.25305C5.48403 5.36616 5.549 5.51958 5.549 5.67955C5.549 5.83952 5.48403 5.99294 5.36839 6.10606C5.25276 6.21917 5.09592 6.28272 4.93239 6.28272H1.92415Z" fill="#343A40"/>
<path d="M9.04361 18.5464C6.64597 18.5437 4.34733 17.6107 2.65194 15.9523C0.956543 14.2939 0.00282857 12.0453 0 9.69997C0 9.48667 0.0866187 9.28212 0.240801 9.1313C0.394984 8.98048 0.6041 8.89574 0.822147 8.89574C1.04019 8.89574 1.24931 8.98048 1.40349 9.1313C1.55767 9.28212 1.64429 9.48667 1.64429 9.69997C1.64629 11.456 2.30086 13.1515 3.48603 14.4704C4.67121 15.7894 6.30617 16.6419 8.08627 16.8691C9.86637 17.0963 11.6702 16.6827 13.1617 15.7054C14.6532 14.7281 15.7305 13.2536 16.1931 11.5569C16.6556 9.86013 16.4718 8.05674 15.6759 6.48273C14.8799 4.90872 13.5261 3.67145 11.8667 3.00145C10.2073 2.33145 8.35553 2.27442 6.65634 2.84098C4.95715 3.40754 3.52647 4.55905 2.63087 6.08096C2.57728 6.17316 2.50558 6.25409 2.41988 6.31907C2.33419 6.38405 2.23621 6.43181 2.13157 6.4596C2.02694 6.48739 1.91771 6.49466 1.81019 6.48099C1.70267 6.46732 1.59898 6.43298 1.50508 6.37995C1.41118 6.32691 1.32894 6.25624 1.26307 6.17199C1.19721 6.08773 1.14904 5.99157 1.12133 5.88903C1.09361 5.7865 1.08691 5.67961 1.1016 5.57452C1.11628 5.46944 1.15208 5.36824 1.20691 5.27674C2.00055 3.93208 3.14202 2.81543 4.51659 2.039C5.89117 1.26257 7.45045 0.853717 9.03773 0.853516C10.625 0.853314 12.1844 1.26177 13.5592 2.03785C14.934 2.81393 16.0757 3.93029 16.8697 5.27475C17.6637 6.61921 18.082 8.14441 18.0825 9.69709C18.083 11.2498 17.6658 12.7752 16.8727 14.1202C16.0796 15.4652 14.9385 16.5823 13.5643 17.3592C12.19 18.1362 10.6309 18.5456 9.04361 18.5464Z" fill="#343A40"/>
<path d="M9.04315 18.3454C6.69995 18.3428 4.45347 17.4312 2.79657 15.8104C1.13968 14.1896 0.207689 11.9921 0.205078 9.69998C0.205078 9.54001 0.270042 9.3866 0.385679 9.27348C0.501316 9.16037 0.658153 9.09682 0.821688 9.09682C0.985223 9.09682 1.14206 9.16037 1.2577 9.27348C1.37333 9.3866 1.4383 9.54001 1.4383 9.69998C1.43935 11.5037 2.11067 13.2456 3.32721 14.601C4.54375 15.9565 6.22253 16.8332 8.05081 17.0677C9.87909 17.3022 11.7322 16.8786 13.2649 15.8758C14.7975 14.8729 15.9053 13.3593 16.3817 11.6168C16.8581 9.87432 16.6708 8.02183 15.8545 6.40446C15.0382 4.78708 13.6488 3.51512 11.9449 2.82553C10.2411 2.13594 8.33903 2.07575 6.59318 2.65618C4.84733 3.23661 3.37671 4.41807 2.45529 5.98045C2.37353 6.11909 2.2388 6.22028 2.08077 6.26176C1.92273 6.30323 1.75432 6.2816 1.61259 6.20161C1.47086 6.12163 1.36742 5.98985 1.32502 5.83525C1.28262 5.68066 1.30474 5.51593 1.3865 5.37729C2.16207 4.06277 3.2777 2.97111 4.62126 2.21203C5.96483 1.45296 7.48899 1.05321 9.04055 1.05298C10.5921 1.05274 12.1164 1.45202 13.4602 2.21069C14.804 2.96936 15.92 4.06067 16.696 5.37496C17.4719 6.68924 17.8806 8.18017 17.8808 9.69791C17.881 11.2156 17.4729 12.7067 16.6973 14.0212C15.9217 15.3357 14.806 16.4273 13.4625 17.1864C12.1189 17.9454 10.5947 18.3452 9.04315 18.3454Z" fill="#343A40"/>
<path d="M12.3314 12.9167C12.1535 12.9172 11.9803 12.8607 11.8381 12.7559L8.54956 10.3432C8.44745 10.2683 8.36458 10.1712 8.3075 10.0595C8.25042 9.94784 8.2207 9.8247 8.2207 9.69985V5.67873C8.2207 5.46544 8.30732 5.26088 8.4615 5.11006C8.61569 4.95924 8.8248 4.87451 9.04285 4.87451C9.2609 4.87451 9.47001 4.95924 9.62419 5.11006C9.77838 5.26088 9.865 5.46544 9.865 5.67873V9.29774L12.8247 11.4691C12.9628 11.5704 13.0647 11.7116 13.1162 11.8727C13.1676 12.0338 13.166 12.2067 13.1114 12.3668C13.0568 12.527 12.9521 12.6662 12.8122 12.7649C12.6722 12.8636 12.504 12.9167 12.3314 12.9167Z" fill="#22B573"/>
<path d="M12.3321 12.7158C12.199 12.7157 12.0694 12.6734 11.963 12.5952L8.67438 10.1825C8.5978 10.1263 8.53564 10.0535 8.49283 9.96971C8.45002 9.88596 8.42773 9.7936 8.42773 9.69997V5.67885C8.42773 5.51888 8.4927 5.36546 8.60833 5.25235C8.72397 5.13923 8.88081 5.07568 9.04434 5.07568C9.20788 5.07568 9.36472 5.13923 9.48035 5.25235C9.59599 5.36546 9.66095 5.51888 9.66095 5.67885V9.39838L12.7029 11.6301C12.8065 11.7061 12.883 11.8121 12.9216 11.933C12.9601 12.0539 12.9588 12.1836 12.9178 12.3038C12.8767 12.4239 12.7981 12.5283 12.693 12.6023C12.5878 12.6763 12.4616 12.716 12.3321 12.7158Z" fill="#22B573"/>
</svg>
