<svg width="17" height="17" viewBox="0 0 17 17" fill="none" xmlns="http://www.w3.org/2000/svg">
<path d="M7.91961 9.33981L7.99032 9.41052L8.06103 9.33981L15.3616 2.03928C15.3616 2.03926 15.3616 2.03925 15.3616 2.03923C15.7141 1.68768 16.2835 1.68696 16.6357 2.03918C16.9881 2.39154 16.9881 2.96089 16.6357 3.31324L8.62735 11.3216L8.62716 11.3218C8.45891 11.4909 8.22924 11.5856 7.99032 11.5856C7.75156 11.5856 7.52273 11.491 7.35329 11.3216L4.36817 8.33649C4.01582 7.98413 4.01582 7.41479 4.36817 7.06243C4.72053 6.71007 5.28987 6.71007 5.64223 7.06243L7.91961 9.33981Z" fill="#22B573" stroke="white" stroke-width="0.2"/>
<path d="M10.6129 3.17522L10.6128 3.17517C9.79641 2.78939 8.91991 2.59398 8.00836 2.59398C4.64067 2.59398 1.90209 5.33257 1.90209 8.70026C1.90209 12.0679 4.64068 14.8065 8.00836 14.8065C11.376 14.8065 14.1146 12.0679 14.1146 8.70026C14.1146 8.20197 14.5183 7.79921 15.0157 7.79921C15.5131 7.79921 15.9167 8.20197 15.9167 8.70026C15.9167 13.0606 12.3687 16.6086 8.00836 16.6086C3.64798 16.6086 0.1 13.0606 0.1 8.70026C0.1 4.33987 3.64798 0.791895 8.00836 0.791895C9.18788 0.791895 10.3235 1.04591 11.3832 1.54509C11.8329 1.75778 12.0256 2.29485 11.813 2.74433L11.813 2.7444C11.6002 3.19517 11.0632 3.38866 10.6129 3.17522Z" fill="#343A40" stroke="white" stroke-width="0.2"/>
</svg>
